<?xml version="1.0" encoding="UTF-8" standalone="no"?>
<!DOCTYPE svg PUBLIC "-//W3C//DTD SVG 1.1//EN"
 "http://www.w3.org/Graphics/SVG/1.1/DTD/svg11.dtd">
<!-- Generated by graphviz version 2.38.0 (20140413.2041)
 -->
<!-- Title: main Pages: 1 -->
<svg width="1587pt" height="1309pt"
 viewBox="0.00 0.00 1587.00 1309.00" xmlns="http://www.w3.org/2000/svg" xmlns:xlink="http://www.w3.org/1999/xlink">
<g id="graph0" class="graph" transform="scale(1 1) rotate(0) translate(4 1305)">
<title>main</title>
<polygon fill="white" stroke="none" points="-4,4 -4,-1305 1583,-1305 1583,4 -4,4"/>
<g id="clust3" class="cluster"><title>cluster_func_uploadOpen</title>
<polygon fill="none" stroke="black" points="8,-188 8,-692.8 168,-692.8 168,-188 8,-188"/>
<text text-anchor="middle" x="88" y="-677.6" font-family="Times New Roman,serif" font-size="14.00">上传查看记录(open)</text>
</g>
<g id="clust4" class="cluster"><title>cluster_func_uploadCoding</title>
<polygon fill="none" stroke="black" points="695,-8 695,-452.3 855,-452.3 855,-8 695,-8"/>
<text text-anchor="middle" x="775" y="-437.1" font-family="Times New Roman,serif" font-size="14.00">上传编辑记录(code)</text>
</g>
<g id="clust1" class="cluster"><title>cluster_event</title>
<polygon fill="none" stroke="black" points="259,-1218 259,-1293 825,-1293 825,-1218 259,-1218"/>
<text text-anchor="middle" x="542" y="-1277.8" font-family="Times New Roman,serif" font-size="14.00">Event:</text>
</g>
<g id="clust5" class="cluster"><title>cluster_func_main1</title>
<polygon fill="none" stroke="black" points="176,-261 176,-1197 687,-1197 687,-261 176,-261"/>
</g>
<g id="clust7" class="cluster"><title>cluster_func_main2</title>
<polygon fill="none" stroke="black" points="863,-261 863,-1197 1571,-1197 1571,-261 863,-261"/>
</g>
<!-- event_openVSCode -->
<g id="node1" class="node"><title>event_openVSCode</title>
<text text-anchor="middle" x="467" y="-1240.3" font-family="Times New Roman,serif" font-size="14.00">Open VSCode</text>
</g>
<!-- cond1_param1 -->
<g id="node16" class="node"><title>cond1_param1</title>
<polygon fill="none" stroke="black" points="472,-1189 200,-1189 200,-1153 472,-1153 472,-1189"/>
<text text-anchor="middle" x="336" y="-1167.3" font-family="Times New Roman,serif" font-size="14.00">var nowDocument = 目前(切换至)查看的文档</text>
</g>
<!-- event_openVSCode&#45;&gt;cond1_param1 -->
<g id="edge10" class="edge"><title>event_openVSCode&#45;&gt;cond1_param1</title>
<path fill="none" stroke="black" d="M444.5,-1225.96C444.5,-1225.96 444.5,-1199.09 444.5,-1199.09"/>
<polygon fill="black" stroke="black" points="448,-1199.09 444.5,-1189.09 441,-1199.09 448,-1199.09"/>
</g>
<!-- event_activeChange -->
<g id="node2" class="node"><title>event_activeChange</title>
<text text-anchor="middle" x="333" y="-1240.3" font-family="Times New Roman,serif" font-size="14.00">Active editor change</text>
</g>
<!-- event_activeChange&#45;&gt;cond1_param1 -->
<g id="edge11" class="edge"><title>event_activeChange&#45;&gt;cond1_param1</title>
<path fill="none" stroke="black" d="M333,-1225.96C333,-1225.96 333,-1199.09 333,-1199.09"/>
<polygon fill="black" stroke="black" points="336.5,-1199.09 333,-1189.09 329.5,-1199.09 336.5,-1199.09"/>
</g>
<!-- event_edit -->
<g id="node3" class="node"><title>event_edit</title>
<text text-anchor="middle" x="736" y="-1240.3" font-family="Times New Roman,serif" font-size="14.00">Document content change</text>
</g>
<!-- cond4 -->
<g id="node25" class="node"><title>cond4</title>
<polygon fill="none" stroke="black" points="1092,-1189 898.116,-1171 1092,-1153 1285.88,-1171 1092,-1189"/>
<text text-anchor="middle" x="1092" y="-1167.3" font-family="Times New Roman,serif" font-size="14.00">lastCodingTime &gt; 目前时间 &#45; 1000</text>
</g>
<!-- event_edit&#45;&gt;cond4 -->
<g id="edge28" class="edge"><title>event_edit&#45;&gt;cond4</title>
<path fill="none" stroke="black" d="M809.5,-1225.96C809.5,-1204.34 809.5,-1171 809.5,-1171 809.5,-1171 888.11,-1171 888.11,-1171"/>
<polygon fill="black" stroke="black" points="888.11,-1174.5 898.11,-1171 888.11,-1167.5 888.11,-1174.5"/>
</g>
<!-- event_closeVSCode -->
<g id="node4" class="node"><title>event_closeVSCode</title>
<text text-anchor="middle" x="586" y="-1240.3" font-family="Times New Roman,serif" font-size="14.00">Close VSCode</text>
</g>
<!-- cond1_param2 -->
<g id="node17" class="node"><title>cond1_param2</title>
<polygon fill="none" stroke="black" points="662.5,-1189 507.5,-1189 507.5,-1153 662.5,-1153 662.5,-1189"/>
<text text-anchor="middle" x="585" y="-1167.3" font-family="Times New Roman,serif" font-size="14.00">var nowDocument = null</text>
</g>
<!-- event_closeVSCode&#45;&gt;cond1_param2 -->
<g id="edge13" class="edge"><title>event_closeVSCode&#45;&gt;cond1_param2</title>
<path fill="none" stroke="black" d="M586,-1225.96C586,-1225.96 586,-1199.09 586,-1199.09"/>
<polygon fill="black" stroke="black" points="589.5,-1199.09 586,-1189.09 582.5,-1199.09 589.5,-1199.09"/>
</g>
<!-- func_uploadOpen_start -->
<g id="node5" class="node"><title>func_uploadOpen_start</title>
<ellipse fill="black" stroke="black" cx="126" cy="-660" rx="1.8" ry="1.8"/>
</g>
<!-- func_uploadOpen_start_2 -->
<g id="node6" class="node"><title>func_uploadOpen_start_2</title>
<polygon fill="none" stroke="black" points="123,-570.5 69,-570.5 69,-534.5 123,-534.5 123,-570.5"/>
<text text-anchor="middle" x="96" y="-548.8" font-family="Times New Roman,serif" font-size="14.00">start</text>
</g>
<!-- func_uploadOpen_start&#45;&gt;func_uploadOpen_start_2 -->
<g id="edge1" class="edge"><title>func_uploadOpen_start&#45;&gt;func_uploadOpen_start_2</title>
<path fill="none" stroke="black" d="M126,-658.125C126,-643.784 126,-552 126,-552 126,-552 125.723,-552 125.723,-552"/>
<polygon fill="black" stroke="black" points="133.232,-548.5 123.231,-552 133.231,-555.5 133.232,-548.5"/>
</g>
<!-- 上传查看记录至服务器 -->
<g id="node9" class="node"><title>上传查看记录至服务器</title>
<polygon fill="none" stroke="black" points="160,-437.5 16,-437.5 16,-401.5 160,-401.5 160,-437.5"/>
<text text-anchor="middle" x="88" y="-415.8" font-family="Times New Roman,serif" font-size="14.00">上传查看记录至服务器</text>
</g>
<!-- func_uploadOpen_start_2&#45;&gt;上传查看记录至服务器 -->
<g id="edge2" class="edge"><title>func_uploadOpen_start_2&#45;&gt;上传查看记录至服务器</title>
<path fill="none" stroke="black" d="M96,-534.286C96,-534.286 96,-447.921 96,-447.921"/>
<polygon fill="black" stroke="black" points="99.5001,-447.921 96,-437.921 92.5001,-447.921 99.5001,-447.921"/>
</g>
<!-- func_uploadOpen_end -->
<g id="node7" class="node"><title>func_uploadOpen_end</title>
<polygon fill="none" stroke="black" points="115,-232 61,-232 61,-196 115,-196 115,-232"/>
<text text-anchor="middle" x="88" y="-210.3" font-family="Times New Roman,serif" font-size="14.00">end</text>
</g>
<!-- after_upload1 -->
<g id="node8" class="node"><title>after_upload1</title>
<polygon fill="none" stroke="black" points="158,-305 18,-305 18,-269 158,-269 158,-305"/>
<text text-anchor="middle" x="88" y="-283.3" font-family="Times New Roman,serif" font-size="14.00">openTime = 目前时间</text>
</g>
<!-- after_upload1&#45;&gt;func_uploadOpen_end -->
<g id="edge4" class="edge"><title>after_upload1&#45;&gt;func_uploadOpen_end</title>
<path fill="none" stroke="black" d="M88,-268.955C88,-268.955 88,-242.09 88,-242.09"/>
<polygon fill="black" stroke="black" points="91.5001,-242.09 88,-232.09 84.5001,-242.09 91.5001,-242.09"/>
</g>
<!-- 上传查看记录至服务器&#45;&gt;after_upload1 -->
<g id="edge3" class="edge"><title>上传查看记录至服务器&#45;&gt;after_upload1</title>
<path fill="none" stroke="black" d="M88,-401.354C88,-401.354 88,-315.352 88,-315.352"/>
<polygon fill="black" stroke="black" points="91.5001,-315.352 88,-305.352 84.5001,-315.352 91.5001,-315.352"/>
</g>
<!-- func_uploadCoding_start -->
<g id="node10" class="node"><title>func_uploadCoding_start</title>
<ellipse fill="black" stroke="black" cx="775" cy="-419.5" rx="1.8" ry="1.8"/>
</g>
<!-- func_uploadCoding_start_2 -->
<g id="node11" class="node"><title>func_uploadCoding_start_2</title>
<polygon fill="none" stroke="black" points="802,-305 748,-305 748,-269 802,-269 802,-305"/>
<text text-anchor="middle" x="775" y="-283.3" font-family="Times New Roman,serif" font-size="14.00">start</text>
</g>
<!-- func_uploadCoding_start&#45;&gt;func_uploadCoding_start_2 -->
<g id="edge5" class="edge"><title>func_uploadCoding_start&#45;&gt;func_uploadCoding_start_2</title>
<path fill="none" stroke="black" d="M775,-417.627C775,-417.627 775,-315.146 775,-315.146"/>
<polygon fill="black" stroke="black" points="778.5,-315.146 775,-305.146 771.5,-315.146 778.5,-315.146"/>
</g>
<!-- 上传编辑记录至服务器 -->
<g id="node14" class="node"><title>上传编辑记录至服务器</title>
<polygon fill="none" stroke="black" points="847,-232 703,-232 703,-196 847,-196 847,-232"/>
<text text-anchor="middle" x="775" y="-210.3" font-family="Times New Roman,serif" font-size="14.00">上传编辑记录至服务器</text>
</g>
<!-- func_uploadCoding_start_2&#45;&gt;上传编辑记录至服务器 -->
<g id="edge6" class="edge"><title>func_uploadCoding_start_2&#45;&gt;上传编辑记录至服务器</title>
<path fill="none" stroke="black" d="M775,-268.955C775,-268.955 775,-242.09 775,-242.09"/>
<polygon fill="black" stroke="black" points="778.5,-242.09 775,-232.09 771.5,-242.09 778.5,-242.09"/>
</g>
<!-- func_uploadCoding_end -->
<g id="node12" class="node"><title>func_uploadCoding_end</title>
<polygon fill="none" stroke="black" points="802,-52 748,-52 748,-16 802,-16 802,-52"/>
<text text-anchor="middle" x="775" y="-30.3" font-family="Times New Roman,serif" font-size="14.00">end</text>
</g>
<!-- after_upload2 -->
<g id="node13" class="node"><title>after_upload2</title>
<polygon fill="none" stroke="black" points="709.5,-89.5 709.5,-158.5 840.5,-158.5 840.5,-89.5 709.5,-89.5"/>
<text text-anchor="middle" x="775" y="-143.3" font-family="Times New Roman,serif" font-size="14.00">firstCodingTime = 0</text>
<polyline fill="none" stroke="black" points="709.5,-135.5 840.5,-135.5 "/>
<text text-anchor="middle" x="775" y="-120.3" font-family="Times New Roman,serif" font-size="14.00">codingLong = 0</text>
<polyline fill="none" stroke="black" points="709.5,-112.5 840.5,-112.5 "/>
<text text-anchor="middle" x="775" y="-97.3" font-family="Times New Roman,serif" font-size="14.00">lastCodingTime = 0</text>
</g>
<!-- after_upload2&#45;&gt;func_uploadCoding_end -->
<g id="edge8" class="edge"><title>after_upload2&#45;&gt;func_uploadCoding_end</title>
<path fill="none" stroke="black" d="M775,-89.461C775,-89.461 775,-62.2128 775,-62.2128"/>
<polygon fill="black" stroke="black" points="778.5,-62.2128 775,-52.2128 771.5,-62.2129 778.5,-62.2128"/>
</g>
<!-- 上传编辑记录至服务器&#45;&gt;after_upload2 -->
<g id="edge7" class="edge"><title>上传编辑记录至服务器&#45;&gt;after_upload2</title>
<path fill="none" stroke="black" d="M775,-195.787C775,-195.787 775,-168.571 775,-168.571"/>
<polygon fill="black" stroke="black" points="778.5,-168.571 775,-158.571 771.5,-168.571 778.5,-168.571"/>
</g>
<!-- cond1 -->
<g id="node15" class="node"><title>cond1</title>
<polygon fill="none" stroke="black" points="495,-1082 360.606,-1064 495,-1046 629.394,-1064 495,-1082"/>
<text text-anchor="middle" x="495" y="-1060.3" font-family="Times New Roman,serif" font-size="14.00">activeDocument != null</text>
</g>
<!-- cond1_yes -->
<g id="node18" class="node"><title>cond1_yes</title>
<polygon fill="none" stroke="black" stroke-dasharray="5,2" points="604,-975 260,-975 260,-937 604,-937 604,-975"/>
<text text-anchor="middle" x="432" y="-959.8" font-family="Times New Roman,serif" font-size="14.00">切换前存在文档</text>
<text text-anchor="middle" x="432" y="-944.8" font-family="Times New Roman,serif" font-size="14.00"> &#160;&#160;&#160;所以在切换到新的文档前需要上传&amp;清空旧文档的记录 &#160;</text>
</g>
<!-- cond1&#45;&gt;cond1_yes -->
<g id="edge15" class="edge"><title>cond1&#45;&gt;cond1_yes</title>
<path fill="none" stroke="black" d="M482.402,-1047.6C482.402,-1047.6 482.402,-985.112 482.402,-985.112"/>
<polygon fill="black" stroke="black" points="485.902,-985.112 482.402,-975.112 478.902,-985.112 485.902,-985.112"/>
<text text-anchor="middle" x="462.5" y="-996.8" font-family="Times New Roman,serif" font-size="14.00">yes</text>
</g>
<!-- cond3 -->
<g id="node20" class="node"><title>cond3</title>
<polygon fill="none" stroke="black" points="450,-698 255,-660 450,-622 645,-660 450,-698"/>
<text text-anchor="middle" x="450" y="-663.8" font-family="Times New Roman,serif" font-size="14.00">codingLong &gt; 0</text>
<text text-anchor="middle" x="450" y="-648.8" font-family="Times New Roman,serif" font-size="14.00">存在编辑时间需要上传编辑记录</text>
</g>
<!-- cond1&#45;&gt;cond3 -->
<g id="edge17" class="edge"><title>cond1&#45;&gt;cond3</title>
<path fill="none" stroke="black" d="M629.459,-1064C634.288,-1064 637.098,-1064 637.098,-1064 637.098,-1064 637.098,-671.801 637.098,-671.801"/>
<polygon fill="black" stroke="black" points="640.599,-671.801 637.098,-661.801 633.599,-671.801 640.599,-671.801"/>
<text text-anchor="middle" x="671.5" y="-858.3" font-family="Times New Roman,serif" font-size="14.00">no</text>
</g>
<!-- cond1_param1&#45;&gt;cond1 -->
<g id="edge12" class="edge"><title>cond1_param1&#45;&gt;cond1</title>
<path fill="none" stroke="black" d="M416.402,-1152.85C416.402,-1152.85 416.402,-1081.72 416.402,-1081.72"/>
<polygon fill="black" stroke="black" points="419.902,-1081.72 416.402,-1071.72 412.902,-1081.72 419.902,-1081.72"/>
</g>
<!-- cond1_param1&#45;&gt;cond1_param2 -->
<g id="edge9" class="edge"><title>cond1_param1&#45;&gt;cond1_param2</title>
<path fill="none" stroke="black" stroke-dasharray="1,5" d="M472.157,-1171C484.192,-1171 496.08,-1171 507.367,-1171"/>
</g>
<!-- initTrack -->
<g id="node23" class="node"><title>initTrack</title>
<polygon fill="none" stroke="black" points="316,-342.5 316,-496.5 520,-496.5 520,-342.5 316,-342.5"/>
<text text-anchor="middle" x="418" y="-465.3" font-family="Times New Roman,serif" font-size="14.00"> 记录新的文档 并 清空旧的记录 </text>
<polyline fill="none" stroke="black" points="316,-457.5 520,-457.5 "/>
<text text-anchor="middle" x="418" y="-442.3" font-family="Times New Roman,serif" font-size="14.00">activeDocument = nowDocument</text>
<polyline fill="none" stroke="black" points="316,-434.5 520,-434.5 "/>
<text text-anchor="middle" x="418" y="-419.3" font-family="Times New Roman,serif" font-size="14.00">openTime = 目前时间</text>
<polyline fill="none" stroke="black" points="316,-411.5 520,-411.5 "/>
<text text-anchor="middle" x="418" y="-396.3" font-family="Times New Roman,serif" font-size="14.00">firstCodingTime = 0</text>
<polyline fill="none" stroke="black" points="316,-388.5 520,-388.5 "/>
<text text-anchor="middle" x="418" y="-373.3" font-family="Times New Roman,serif" font-size="14.00">codingLong = 0</text>
<polyline fill="none" stroke="black" points="316,-365.5 520,-365.5 "/>
<text text-anchor="middle" x="418" y="-350.3" font-family="Times New Roman,serif" font-size="14.00">lastCodingTime = 0</text>
</g>
<!-- cond1_param1&#45;&gt;initTrack -->
<g id="edge26" class="edge"><title>cond1_param1&#45;&gt;initTrack</title>
<path fill="none" stroke="black" stroke-dasharray="1,5" d="M199.758,-1171C187.734,-1171 180,-1171 180,-1171 180,-1171 180,-467 180,-467 180,-467 251.179,-467 315.685,-467"/>
</g>
<!-- cond1_param2&#45;&gt;cond1 -->
<g id="edge14" class="edge"><title>cond1_param2&#45;&gt;cond1</title>
<path fill="none" stroke="black" d="M568.348,-1152.85C568.348,-1152.85 568.348,-1082.24 568.348,-1082.24"/>
<polygon fill="black" stroke="black" points="571.849,-1082.24 568.348,-1072.24 564.849,-1082.24 571.849,-1082.24"/>
</g>
<!-- cond2 -->
<g id="node19" class="node"><title>cond2</title>
<polygon fill="none" stroke="black" points="416,-900 204,-862 416,-824 628,-862 416,-900"/>
<text text-anchor="middle" x="416" y="-865.8" font-family="Times New Roman,serif" font-size="14.00">openTime &lt; 目前时间 &#45; 5000</text>
<text text-anchor="middle" x="416" y="-850.8" font-family="Times New Roman,serif" font-size="14.00"> 打开时间超过5s需要上传查看记录</text>
</g>
<!-- cond1_yes&#45;&gt;cond2 -->
<g id="edge16" class="edge"><title>cond1_yes&#45;&gt;cond2</title>
<path fill="none" stroke="black" d="M432,-936.978C432,-936.978 432,-907.345 432,-907.345"/>
<polygon fill="black" stroke="black" points="435.5,-907.345 432,-897.345 428.5,-907.345 435.5,-907.345"/>
</g>
<!-- cond2&#45;&gt;cond3 -->
<g id="edge21" class="edge"><title>cond2&#45;&gt;cond3</title>
<path fill="none" stroke="black" d="M266.75,-850.561C266.75,-850.561 266.75,-672.586 266.75,-672.586"/>
<polygon fill="black" stroke="black" points="270.25,-672.586 266.75,-662.586 263.25,-672.586 270.25,-672.586"/>
<text text-anchor="middle" x="457.5" y="-750.3" font-family="Times New Roman,serif" font-size="14.00">no</text>
</g>
<!-- cond2_yes -->
<g id="node21" class="node"><title>cond2_yes</title>
<polygon fill="none" stroke="black" points="278.5,-736 278.5,-772 413.5,-772 413.5,-736 278.5,-736"/>
<text text-anchor="middle" x="299.5" y="-750.3" font-family="Times New Roman,serif" font-size="14.00">调用</text>
<polyline fill="none" stroke="black" points="320.5,-736 320.5,-772 "/>
<text text-anchor="middle" x="367" y="-750.3" font-family="Times New Roman,serif" font-size="14.00">上传查看记录</text>
</g>
<!-- cond2&#45;&gt;cond2_yes -->
<g id="edge18" class="edge"><title>cond2&#45;&gt;cond2_yes</title>
<path fill="none" stroke="black" d="M346,-836.406C346,-836.406 346,-782.317 346,-782.317"/>
<polygon fill="black" stroke="black" points="349.5,-782.317 346,-772.317 342.5,-782.317 349.5,-782.317"/>
<text text-anchor="middle" x="390.5" y="-794.8" font-family="Times New Roman,serif" font-size="14.00">yes</text>
</g>
<!-- cond3_yes -->
<g id="node22" class="node"><title>cond3_yes</title>
<polygon fill="none" stroke="black" points="451.5,-534.5 451.5,-570.5 586.5,-570.5 586.5,-534.5 451.5,-534.5"/>
<text text-anchor="middle" x="472.5" y="-548.8" font-family="Times New Roman,serif" font-size="14.00">调用</text>
<polyline fill="none" stroke="black" points="493.5,-534.5 493.5,-570.5 "/>
<text text-anchor="middle" x="540" y="-548.8" font-family="Times New Roman,serif" font-size="14.00">上传编辑记录</text>
</g>
<!-- cond3&#45;&gt;cond3_yes -->
<g id="edge22" class="edge"><title>cond3&#45;&gt;cond3_yes</title>
<path fill="none" stroke="black" d="M519,-635.337C519,-635.337 519,-580.676 519,-580.676"/>
<polygon fill="black" stroke="black" points="522.5,-580.676 519,-570.676 515.5,-580.676 522.5,-580.676"/>
<text text-anchor="middle" x="490.5" y="-592.8" font-family="Times New Roman,serif" font-size="14.00">yes</text>
</g>
<!-- cond3&#45;&gt;initTrack -->
<g id="edge25" class="edge"><title>cond3&#45;&gt;initTrack</title>
<path fill="none" stroke="black" d="M383.75,-634.717C383.75,-634.717 383.75,-506.731 383.75,-506.731"/>
<polygon fill="black" stroke="black" points="387.25,-506.731 383.75,-496.731 380.25,-506.731 387.25,-506.731"/>
<text text-anchor="middle" x="425.5" y="-548.8" font-family="Times New Roman,serif" font-size="14.00">no</text>
</g>
<!-- cond2_yes&#45;&gt;func_uploadOpen_start -->
<g id="edge19" class="edge"><title>cond2_yes&#45;&gt;func_uploadOpen_start</title>
<path fill="none" stroke="black" stroke-dasharray="5,2" d="M278.498,-754C213.828,-754 126,-754 126,-754 126,-754 126,-675.462 126,-661.963"/>
</g>
<!-- cond2_yes&#45;&gt;cond3 -->
<g id="edge20" class="edge"><title>cond2_yes&#45;&gt;cond3</title>
<path fill="none" stroke="black" d="M346,-735.876C346,-735.876 346,-687.75 346,-687.75"/>
<polygon fill="black" stroke="black" points="349.5,-687.75 346,-677.75 342.5,-687.75 349.5,-687.75"/>
</g>
<!-- cond3_yes&#45;&gt;func_uploadCoding_start -->
<g id="edge23" class="edge"><title>cond3_yes&#45;&gt;func_uploadCoding_start</title>
<path fill="none" stroke="black" stroke-dasharray="5,2" d="M586.596,-552C662.441,-552 775,-552 775,-552 775,-552 775,-437.478 775,-421.373"/>
</g>
<!-- cond3_yes&#45;&gt;initTrack -->
<g id="edge24" class="edge"><title>cond3_yes&#45;&gt;initTrack</title>
<path fill="none" stroke="black" d="M485.75,-534.286C485.75,-534.286 485.75,-506.573 485.75,-506.573"/>
<polygon fill="black" stroke="black" points="489.25,-506.573 485.75,-496.573 482.25,-506.573 489.25,-506.573"/>
</g>
<!-- initTrack_end -->
<g id="node24" class="node"><title>initTrack_end</title>
<ellipse fill="none" stroke="black" cx="418" cy="-287" rx="27" ry="18"/>
<text text-anchor="middle" x="418" y="-283.3" font-family="Times New Roman,serif" font-size="14.00">end</text>
</g>
<!-- initTrack&#45;&gt;initTrack_end -->
<g id="edge27" class="edge"><title>initTrack&#45;&gt;initTrack_end</title>
<path fill="none" stroke="black" d="M418,-342.424C418,-342.424 418,-315.241 418,-315.241"/>
<polygon fill="black" stroke="black" points="421.5,-315.241 418,-305.241 414.5,-315.241 421.5,-315.241"/>
</g>
<!-- cond4_yes -->
<g id="node26" class="node"><title>cond4_yes</title>
<polygon fill="none" stroke="black" stroke-dasharray="5,2" points="1563,-1083 1331,-1083 1331,-1045 1563,-1045 1563,-1083"/>
<text text-anchor="middle" x="1447" y="-1067.8" font-family="Times New Roman,serif" font-size="14.00"> &#160;距离上次内容更改时间过短(小于1s) &#160;</text>
<text text-anchor="middle" x="1447" y="-1052.8" font-family="Times New Roman,serif" font-size="14.00">不处理并丢弃该事件</text>
</g>
<!-- cond4&#45;&gt;cond4_yes -->
<g id="edge29" class="edge"><title>cond4&#45;&gt;cond4_yes</title>
<path fill="none" stroke="black" d="M1286.12,-1171C1369,-1171 1447,-1171 1447,-1171 1447,-1171 1447,-1093.13 1447,-1093.13"/>
<polygon fill="black" stroke="black" points="1450.5,-1093.13 1447,-1083.13 1443.5,-1093.13 1450.5,-1093.13"/>
<text text-anchor="middle" x="1297.5" y="-1123.8" font-family="Times New Roman,serif" font-size="14.00">yes</text>
</g>
<!-- cond5 -->
<g id="node28" class="node"><title>cond5</title>
<polygon fill="none" stroke="black" points="1092,-1102 871,-1064 1092,-1026 1313,-1064 1092,-1102"/>
<text text-anchor="middle" x="1092" y="-1067.8" font-family="Times New Roman,serif" font-size="14.00">firstCodingTime == 0</text>
<text text-anchor="middle" x="1092" y="-1052.8" font-family="Times New Roman,serif" font-size="14.00">还没有记录该文件的第一次修改时间</text>
</g>
<!-- cond4&#45;&gt;cond5 -->
<g id="edge31" class="edge"><title>cond4&#45;&gt;cond5</title>
<path fill="none" stroke="black" d="M1092,-1152.85C1092,-1152.85 1092,-1112.24 1092,-1112.24"/>
<polygon fill="black" stroke="black" points="1095.5,-1112.24 1092,-1102.24 1088.5,-1112.24 1095.5,-1112.24"/>
<text text-anchor="middle" x="1099.5" y="-1123.8" font-family="Times New Roman,serif" font-size="14.00">no</text>
</g>
<!-- cond4_yes_end -->
<g id="node27" class="node"><title>cond4_yes_end</title>
<ellipse fill="none" stroke="black" cx="1447" cy="-956" rx="27" ry="18"/>
<text text-anchor="middle" x="1447" y="-952.3" font-family="Times New Roman,serif" font-size="14.00">end</text>
</g>
<!-- cond4_yes&#45;&gt;cond4_yes_end -->
<g id="edge30" class="edge"><title>cond4_yes&#45;&gt;cond4_yes_end</title>
<path fill="none" stroke="black" d="M1447,-1044.94C1447,-1044.94 1447,-984.15 1447,-984.15"/>
<polygon fill="black" stroke="black" points="1450.5,-984.15 1447,-974.15 1443.5,-984.15 1450.5,-984.15"/>
</g>
<!-- cond5_yes -->
<g id="node29" class="node"><title>cond5_yes</title>
<polygon fill="none" stroke="black" points="1294.5,-974 1119.5,-974 1119.5,-938 1294.5,-938 1294.5,-974"/>
<text text-anchor="middle" x="1207" y="-952.3" font-family="Times New Roman,serif" font-size="14.00">firstCodingTime = 目前时间</text>
</g>
<!-- cond5&#45;&gt;cond5_yes -->
<g id="edge32" class="edge"><title>cond5&#45;&gt;cond5_yes</title>
<path fill="none" stroke="black" d="M1207,-1045.68C1207,-1045.68 1207,-984.05 1207,-984.05"/>
<polygon fill="black" stroke="black" points="1210.5,-984.05 1207,-974.05 1203.5,-984.05 1210.5,-984.05"/>
<text text-anchor="middle" x="1167.5" y="-996.8" font-family="Times New Roman,serif" font-size="14.00">yes</text>
</g>
<!-- cond6 -->
<g id="node30" class="node"><title>cond6</title>
<polygon fill="none" stroke="black" points="1141,-880 921.143,-862 1141,-844 1360.86,-862 1141,-880"/>
<text text-anchor="middle" x="1141" y="-858.3" font-family="Times New Roman,serif" font-size="14.00">lastCodingTime &lt; 目前时间 &#45; 30 * 1000</text>
</g>
<!-- cond5&#45;&gt;cond6 -->
<g id="edge34" class="edge"><title>cond5&#45;&gt;cond6</title>
<path fill="none" stroke="black" d="M1303.75,-1062.25C1303.75,-1062.25 1303.75,-876.847 1303.75,-876.847"/>
<polygon fill="black" stroke="black" points="1307.25,-876.847 1303.75,-866.847 1300.25,-876.847 1307.25,-876.847"/>
<text text-anchor="middle" x="1093.5" y="-952.3" font-family="Times New Roman,serif" font-size="14.00">no</text>
</g>
<!-- cond5_yes&#45;&gt;cond6 -->
<g id="edge33" class="edge"><title>cond5_yes&#45;&gt;cond6</title>
<path fill="none" stroke="black" d="M1207,-937.876C1207,-937.876 1207,-884.653 1207,-884.653"/>
<polygon fill="black" stroke="black" points="1210.5,-884.653 1207,-874.653 1203.5,-884.653 1210.5,-884.653"/>
</g>
<!-- cond6_yes -->
<g id="node31" class="node"><title>cond6_yes</title>
<polygon fill="none" stroke="black" points="1170.5,-773 871.5,-773 871.5,-735 1170.5,-735 1170.5,-773"/>
<text text-anchor="middle" x="1021" y="-757.8" font-family="Times New Roman,serif" font-size="14.00"> &#160;上次修改距离现在太久了(大于30S) &#160;</text>
<text text-anchor="middle" x="1021" y="-742.8" font-family="Times New Roman,serif" font-size="14.00"> &#160;需要上传一次编辑记录并重新开始记录编辑记录 &#160;</text>
</g>
<!-- cond6&#45;&gt;cond6_yes -->
<g id="edge35" class="edge"><title>cond6&#45;&gt;cond6_yes</title>
<path fill="none" stroke="black" d="M1045.91,-851.645C1045.91,-851.645 1045.91,-783.174 1045.91,-783.174"/>
<polygon fill="black" stroke="black" points="1049.41,-783.174 1045.91,-773.174 1042.41,-783.174 1049.41,-783.174"/>
<text text-anchor="middle" x="1090.5" y="-794.8" font-family="Times New Roman,serif" font-size="14.00">yes</text>
</g>
<!-- continueCodingTrack -->
<g id="node34" class="node"><title>continueCodingTrack</title>
<polygon fill="none" stroke="black" points="1073,-385 1073,-454 1245,-454 1245,-385 1073,-385"/>
<text text-anchor="middle" x="1159" y="-438.8" font-family="Times New Roman,serif" font-size="14.00">增加编辑时间记录</text>
<polyline fill="none" stroke="black" points="1073,-431 1245,-431 "/>
<text text-anchor="middle" x="1159" y="-415.8" font-family="Times New Roman,serif" font-size="14.00">codingLong += 1000</text>
<polyline fill="none" stroke="black" points="1073,-408 1245,-408 "/>
<text text-anchor="middle" x="1159" y="-392.8" font-family="Times New Roman,serif" font-size="14.00">lastCodingTime = 目前时间</text>
</g>
<!-- cond6&#45;&gt;continueCodingTrack -->
<g id="edge40" class="edge"><title>cond6&#45;&gt;continueCodingTrack</title>
<path fill="none" stroke="black" d="M1207.75,-849.234C1207.75,-849.234 1207.75,-464.257 1207.75,-464.257"/>
<polygon fill="black" stroke="black" points="1211.25,-464.257 1207.75,-454.257 1204.25,-464.257 1211.25,-464.257"/>
<text text-anchor="middle" x="1197.5" y="-656.3" font-family="Times New Roman,serif" font-size="14.00">no</text>
</g>
<!-- cond6_yes_then -->
<g id="node32" class="node"><title>cond6_yes_then</title>
<polygon fill="none" stroke="black" points="953.5,-642 953.5,-678 1088.5,-678 1088.5,-642 953.5,-642"/>
<text text-anchor="middle" x="974.5" y="-656.3" font-family="Times New Roman,serif" font-size="14.00">调用</text>
<polyline fill="none" stroke="black" points="995.5,-642 995.5,-678 "/>
<text text-anchor="middle" x="1042" y="-656.3" font-family="Times New Roman,serif" font-size="14.00">上传编辑记录</text>
</g>
<!-- cond6_yes&#45;&gt;cond6_yes_then -->
<g id="edge37" class="edge"><title>cond6_yes&#45;&gt;cond6_yes_then</title>
<path fill="none" stroke="black" d="M1021,-734.978C1021,-734.978 1021,-688.037 1021,-688.037"/>
<polygon fill="black" stroke="black" points="1024.5,-688.037 1021,-678.037 1017.5,-688.037 1024.5,-688.037"/>
</g>
<!-- cond6_yes_then&#45;&gt;func_uploadCoding_start -->
<g id="edge36" class="edge"><title>cond6_yes_then&#45;&gt;func_uploadCoding_start</title>
<path fill="none" stroke="black" stroke-dasharray="5,2" d="M966.5,-641.886C966.5,-585.839 966.5,-419 966.5,-419 966.5,-419 798.189,-419 777.151,-419"/>
</g>
<!-- firstCodingTime = 目前时间 -->
<g id="node33" class="node"><title>firstCodingTime = 目前时间</title>
<polygon fill="none" stroke="black" points="1154.5,-570.5 979.5,-570.5 979.5,-534.5 1154.5,-534.5 1154.5,-570.5"/>
<text text-anchor="middle" x="1067" y="-548.8" font-family="Times New Roman,serif" font-size="14.00">firstCodingTime = 目前时间</text>
</g>
<!-- cond6_yes_then&#45;&gt;firstCodingTime = 目前时间 -->
<g id="edge38" class="edge"><title>cond6_yes_then&#45;&gt;firstCodingTime = 目前时间</title>
<path fill="none" stroke="black" d="M1034,-641.764C1034,-641.764 1034,-580.825 1034,-580.825"/>
<polygon fill="black" stroke="black" points="1037.5,-580.825 1034,-570.825 1030.5,-580.825 1037.5,-580.825"/>
</g>
<!-- firstCodingTime = 目前时间&#45;&gt;continueCodingTrack -->
<g id="edge39" class="edge"><title>firstCodingTime = 目前时间&#45;&gt;continueCodingTrack</title>
<path fill="none" stroke="black" d="M1113.75,-534.286C1113.75,-534.286 1113.75,-464.156 1113.75,-464.156"/>
<polygon fill="black" stroke="black" points="1117.25,-464.156 1113.75,-454.156 1110.25,-464.156 1117.25,-464.156"/>
</g>
<!-- continueCodingTrack_end -->
<g id="node35" class="node"><title>continueCodingTrack_end</title>
<ellipse fill="none" stroke="black" cx="1159" cy="-287" rx="27" ry="18"/>
<text text-anchor="middle" x="1159" y="-283.3" font-family="Times New Roman,serif" font-size="14.00">end</text>
</g>
<!-- continueCodingTrack&#45;&gt;continueCodingTrack_end -->
<g id="edge41" class="edge"><title>continueCodingTrack&#45;&gt;continueCodingTrack_end</title>
<path fill="none" stroke="black" d="M1159,-384.687C1159,-384.687 1159,-315.293 1159,-315.293"/>
<polygon fill="black" stroke="black" points="1162.5,-315.293 1159,-305.293 1155.5,-315.293 1162.5,-315.293"/>
</g>
</g>
</svg>
